HIERARCHY
ROOT Hips
{
	OFFSET 0.00 0.00 0.00
	CHANNELS 6 Xposition Yposition Zposition Xrotation Yrotation Zrotation
	JOINT Spine
	{
		OFFSET 2.945186 -25.628684 1.109128
		CHANNELS 3 Xrotation Yrotation Zrotation
		JOINT Spine1
		{
			OFFSET 2.945186 -25.628684 1.109128
			CHANNELS 3 Xrotation Yrotation Zrotation
			JOINT Neck
			{
				OFFSET 0.000000 0.000000 0.000000
				CHANNELS 3 Xrotation Yrotation Zrotation
				JOINT Head
				{
					OFFSET 11.811784 -11.089606 23.844523
					CHANNELS 3 Xrotation Yrotation Zrotation
					End Site
					{
						OFFSET 0.000000 15.000000 0.000000
					}
				}
			}
			JOINT LeftShoulder
			{
				OFFSET 10.210514 4.159964 -8.187323
				CHANNELS 3 Xrotation Yrotation Zrotation
				JOINT LeftArm
				{
					OFFSET 0.626653 19.482780 -7.789002
					CHANNELS 3 Xrotation Yrotation Zrotation
					JOINT LeftForeArm
					{
						OFFSET 10.608538 18.027708 1.759096
						CHANNELS 3 Xrotation Yrotation Zrotation
						JOINT LeftHand
						{
							OFFSET 0.980963 2.636260 0.185302
							CHANNELS 3 Xrotation Yrotation Zrotation
							End Site
							{
								OFFSET -5.000000 0.000000 0.000000
							}
						}
					}
				}
			}
			JOINT RightShoulder
			{
				OFFSET -10.210514 -4.159964 8.187323
				CHANNELS 3 Xrotation Yrotation Zrotation
				JOINT RightArm
				{
					OFFSET -10.609265 24.884124 14.645813
					CHANNELS 3 Xrotation Yrotation Zrotation
					JOINT RightForeArm
					{
						OFFSET 15.374407 -0.825575 14.695457
						CHANNELS 3 Xrotation Yrotation Zrotation
						JOINT RightHand
						{
							OFFSET 7.074624 -3.181635 4.525917
							CHANNELS 3 Xrotation Yrotation Zrotation
							End Site
							{
								OFFSET 5.000000 0.000000 0.000000
							}
						}
					}
				}
			}
		}
	}
	JOINT LeftUpLeg
	{
		OFFSET 7.429526 0.606695 -9.876685
		CHANNELS 3 Xrotation Yrotation Zrotation
		JOINT LeftLeg
		{
			OFFSET 15.514875 32.862122 9.244242
			CHANNELS 3 Xrotation Yrotation Zrotation
			JOINT LeftFoot
			{
				OFFSET -8.890457 36.504891 -13.720885
				CHANNELS 3 Xrotation Yrotation Zrotation
				End Site
				{
					OFFSET 0.000000 -5.000000 5.000000
				}
			}
		}
	}
	JOINT RightUpLeg
	{
		OFFSET -7.429526 -0.606695 9.876685
		CHANNELS 3 Xrotation Yrotation Zrotation
		JOINT RightLeg
		{
			OFFSET -5.446790 32.188600 1.202190
			CHANNELS 3 Xrotation Yrotation Zrotation
			JOINT RightFoot
			{
				OFFSET -12.155769 36.220580 -12.360753
				CHANNELS 3 Xrotation Yrotation Zrotation
				End Site
				{
					OFFSET 0.000000 -5.000000 5.000000
				}
			}
		}
	}
}
MOTION
Frames: 8
Frame Time: 0.033333
0.121302 -0.184725 -0.129555 -0.313915 91.909412 -80.535664 -0.313915 91.909412 -80.535664 0.000000 0.000000 0.000000 61.407389 18.700619 -22.030686 0.000000 0.000000 0.000000 -23.787030 150.940056 62.520825 2.098289 86.615074 51.675530 13.943197 65.686035 54.180883 0.000000 0.000000 0.000000 16.020582 -55.281218 61.016123 33.817720 22.230471 53.041006 42.973281 46.319271 9.250601 0.000000 0.000000 0.000000 3.282632 78.298762 73.599953 -18.618735 -128.834441 59.393260 0.000000 0.000000 0.000000 6.380134 15.679208 83.372200 -7.390943 -124.925477 77.015201 0.000000 0.000000 0.000000
0.120836 -0.183808 -0.134503 -0.098713 90.586543 -80.311036 -0.098713 90.586543 -80.311036 0.000000 0.000000 0.000000 61.475032 18.191117 -22.357001 0.000000 0.000000 0.000000 -23.253364 150.619895 63.059195 2.830362 85.337148 52.596409 17.725802 58.814356 53.986406 0.000000 0.000000 0.000000 16.704086 -53.389062 61.186683 34.579105 20.789406 52.622129 43.325639 45.831826 10.017686 0.000000 0.000000 0.000000 4.844955 73.483701 72.716984 -17.010652 -126.027760 60.172969 0.000000 0.000000 0.000000 5.244312 10.116224 84.672632 -7.996985 -123.727812 75.489560 0.000000 0.000000 0.000000
0.120879 -0.182927 -0.138804 -0.021682 90.127953 -80.244100 -0.021682 90.127953 -80.244100 0.000000 0.000000 0.000000 61.781534 17.649549 -22.380341 0.000000 0.000000 0.000000 -22.937136 150.251038 63.328165 2.660564 85.556295 53.193693 18.120812 57.584830 54.534696 0.000000 0.000000 0.000000 17.835128 -50.733230 61.059239 34.851017 19.828641 52.593930 43.544198 45.503523 10.596200 0.000000 0.000000 0.000000 6.786594 68.165762 71.474191 -15.243708 -122.651501 60.835102 0.000000 0.000000 0.000000 4.001078 -1.501650 85.997545 -8.200215 -122.107139 74.433501 0.000000 0.000000 0.000000
0.121166 -0.181750 -0.142349 0.036107 89.784603 -80.349931 0.036107 89.784603 -80.349931 0.000000 0.000000 0.000000 61.882769 17.404640 -22.436455 0.000000 0.000000 0.000000 -22.602155 149.966141 63.644610 2.945891 85.034060 53.579931 18.306504 57.262852 54.491630 0.000000 0.000000 0.000000 18.711523 -48.920159 60.777424 34.609173 19.518302 52.943355 43.681469 45.267445 11.093112 0.000000 0.000000 0.000000 6.787199 68.414925 71.261476 -15.358602 -122.408522 60.383998 0.000000 0.000000 0.000000 3.431156 -19.126142 86.368115 -7.985796 -120.045863 73.890700 0.000000 0.000000 0.000000
0.121669 -0.180520 -0.145154 0.072125 89.564402 -80.469209 0.072125 89.564402 -80.469209 0.000000 0.000000 0.000000 61.942487 17.148370 -22.551972 0.000000 0.000000 0.000000 -22.439227 149.665504 63.752398 3.114287 84.709454 53.899856 18.707235 55.429063 55.580963 0.000000 0.000000 0.000000 19.285890 -47.847956 60.518013 34.112021 19.611218 53.462570 43.758305 45.060649 11.725578 0.000000 0.000000 0.000000 5.673672 71.563715 71.783480 -16.069182 -123.476583 59.880012 0.000000 0.000000 0.000000 2.681294 -33.608119 86.780032 -7.774526 -118.928170 73.760091 0.000000 0.000000 0.000000
0.122421 -0.179320 -0.148784 0.183293 88.893664 -80.462948 0.183293 88.893664 -80.462948 0.000000 0.000000 0.000000 61.906167 17.061874 -22.662420 0.000000 0.000000 0.000000 -22.083014 149.896633 64.242541 3.501460 83.965484 54.482532 20.034943 48.685385 58.739590 0.000000 0.000000 0.000000 19.449490 -46.005206 61.354920 33.663096 17.851135 54.384371 44.213272 44.208794 13.385540 0.000000 0.000000 0.000000 7.162564 68.357835 70.240366 -16.519514 -124.591869 59.944232 0.000000 0.000000 0.000000 2.247835 -61.403123 85.299678 -8.089264 -117.875222 72.484393 0.000000 0.000000 0.000000
0.123235 -0.177087 -0.154326 0.302992 88.180456 -80.412820 0.302992 88.180456 -80.412820 0.000000 0.000000 0.000000 61.898866 16.979500 -22.732030 0.000000 0.000000 0.000000 -21.222395 149.816589 65.243362 4.983556 81.120240 55.752475 22.403629 35.735131 61.996254 0.000000 0.000000 0.000000 19.574005 -43.215098 62.632234 33.668685 15.049155 54.964870 44.783635 43.071422 15.353579 0.000000 0.000000 0.000000 10.500220 62.029672 67.135188 -17.216877 -126.032411 59.789680 0.000000 0.000000 0.000000 1.917477 -75.816886 82.151192 -9.565933 -118.390757 69.543083 0.000000 0.000000 0.000000
0.123578 -0.173565 -0.160019 0.364817 87.841975 -80.265074 0.364817 87.841975 -80.265074 0.000000 0.000000 0.000000 62.030486 16.758816 -22.724467 0.000000 0.000000 0.000000 -20.145921 150.321667 66.645788 7.118435 76.124986 58.885034 24.729232 12.982868 64.576556 0.000000 0.000000 0.000000 19.512467 -39.691595 64.274032 33.489402 11.596750 55.716981 44.999752 42.258679 17.177299 0.000000 0.000000 0.000000 14.765685 56.065580 62.835229 -18.042482 -127.961325 59.767695 0.000000 0.000000 0.000000 0.240639 -88.871264 77.689690 -12.063747 -119.614936 64.980142 0.000000 0.000000 0.000000
